<svg width="16" height="15" viewBox="0 0 16 15" fill="none" xmlns="http://www.w3.org/2000/svg">
<path fill-rule="evenodd" clip-rule="evenodd" d="M3.05991 11.0511C3.15913 11.1507 3.23516 11.2709 3.28258 11.4033C3.33 11.5356 3.34765 11.6768 3.33426 11.8168C3.26708 12.4645 3.13971 13.1045 2.95381 13.7286C4.28729 13.4198 5.10173 13.0623 5.47166 12.8749C5.68149 12.7687 5.92312 12.7435 6.15035 12.8042C6.80174 12.9779 7.4731 13.0653 8.14724 13.0642C11.967 13.0642 14.8386 10.381 14.8386 7.32879C14.8386 4.27754 11.967 1.59336 8.14724 1.59336C4.32744 1.59336 1.4559 4.27754 1.4559 7.32879C1.4559 8.73205 2.0457 10.034 3.05991 11.0511ZM2.58865 14.7839C2.36217 14.8288 2.13495 14.8699 1.90709 14.9072C1.71591 14.9378 1.57061 14.739 1.64613 14.5612C1.73101 14.361 1.8088 14.1579 1.87937 13.9523L1.88224 13.9427C2.1193 13.2544 2.3124 12.463 2.38313 11.7259C1.21024 10.5502 0.5 9.01118 0.5 7.32879C0.5 3.63326 3.92405 0.637451 8.14724 0.637451C12.3704 0.637451 15.7945 3.63326 15.7945 7.32879C15.7945 11.0243 12.3704 14.0201 8.14724 14.0201C7.38983 14.0211 6.63556 13.9228 5.90373 13.7276C5.40666 13.979 4.337 14.4369 2.58865 14.7839Z" fill="#999999"/>
<path fill-rule="evenodd" clip-rule="evenodd" d="M4.32324 4.93901C4.32324 4.81225 4.3736 4.69068 4.46323 4.60105C4.55286 4.51142 4.67443 4.46106 4.80119 4.46106H11.4925C11.6193 4.46106 11.7409 4.51142 11.8305 4.60105C11.9201 4.69068 11.9705 4.81225 11.9705 4.93901C11.9705 5.06577 11.9201 5.18734 11.8305 5.27698C11.7409 5.36661 11.6193 5.41696 11.4925 5.41696H4.80119C4.67443 5.41696 4.55286 5.36661 4.46323 5.27698C4.3736 5.18734 4.32324 5.06577 4.32324 4.93901ZM4.32324 7.32877C4.32324 7.20201 4.3736 7.08044 4.46323 6.99081C4.55286 6.90118 4.67443 6.85082 4.80119 6.85082H11.4925C11.6193 6.85082 11.7409 6.90118 11.8305 6.99081C11.9201 7.08044 11.9705 7.20201 11.9705 7.32877C11.9705 7.45553 11.9201 7.5771 11.8305 7.66674C11.7409 7.75637 11.6193 7.80673 11.4925 7.80673H4.80119C4.67443 7.80673 4.55286 7.75637 4.46323 7.66674C4.3736 7.5771 4.32324 7.45553 4.32324 7.32877ZM4.32324 9.71854C4.32324 9.59177 4.3736 9.47021 4.46323 9.38057C4.55286 9.29094 4.67443 9.24058 4.80119 9.24058H8.62481C8.75157 9.24058 8.87314 9.29094 8.96278 9.38057C9.05241 9.47021 9.10277 9.59177 9.10277 9.71854C9.10277 9.8453 9.05241 9.96687 8.96278 10.0565C8.87314 10.1461 8.75157 10.1965 8.62481 10.1965H4.80119C4.67443 10.1965 4.55286 10.1461 4.46323 10.0565C4.3736 9.96687 4.32324 9.8453 4.32324 9.71854Z" fill="#999999"/>
</svg>
