<svg width="19" height="19" viewBox="0 0 19 19" fill="none" xmlns="http://www.w3.org/2000/svg">
<path d="M13.8903 0.387451C14.6192 0.387402 15.3205 0.67325 15.8503 1.18636C16.3801 1.69946 16.6983 2.40093 16.7395 3.14685L16.7439 3.31245V8.50725C16.3334 8.2375 15.8908 8.02304 15.4269 7.86915V3.31245C15.4268 2.91718 15.2818 2.53637 15.0206 2.2456C14.7594 1.95483 14.401 1.77538 14.0167 1.74285L13.8903 1.73745H3.79272C3.26589 1.73745 2.80052 2.00925 2.52394 2.42415C2.09864 2.19097 1.60443 2.12656 1.13574 2.24325C1.33558 1.72249 1.67684 1.27134 2.1191 0.943237C2.56136 0.615132 3.08609 0.423817 3.63115 0.391951L3.79272 0.387451H13.8903Z" fill="#999999"/>
<path d="M8.94129 14.9511C9.10701 15.4754 9.33594 15.9692 9.62042 16.4238H4.0916C3.29643 16.4239 2.53139 16.112 1.95341 15.5523C1.37543 14.9925 1.02832 14.2273 0.983305 13.4136L0.978516 13.2329V5.00725C1.44331 5.17594 1.95052 5.17594 2.41532 5.00725V13.2329C2.41536 13.6643 2.57369 14.0798 2.85886 14.3971C3.14404 14.7143 3.53519 14.91 3.95462 14.9452L4.0916 14.9511H8.94129Z" fill="#999999"/>
<path d="M8.60394 10.7402C8.85507 10.2465 9.17348 9.79189 9.5496 9.39017H5.98472L5.89692 9.39647C5.73177 9.41975 5.58139 9.50637 5.4761 9.63884C5.37081 9.77132 5.31846 9.93979 5.3296 10.1103C5.34074 10.2808 5.41455 10.4406 5.53613 10.5575C5.65771 10.6744 5.81802 10.7397 5.98472 10.7402H8.60482H8.60394Z" fill="#999999"/>
<path d="M11.6973 6.23386C11.8641 6.23391 12.0247 6.29888 12.1467 6.41563C12.2686 6.53239 12.3427 6.69222 12.3541 6.86285C12.3655 7.03347 12.3132 7.20216 12.2079 7.33482C12.1026 7.46749 11.9521 7.55424 11.7868 7.57756L11.6973 7.58386H5.98646C5.81961 7.5838 5.659 7.51884 5.53708 7.40208C5.41516 7.28532 5.34103 7.12549 5.32966 6.95486C5.31829 6.78424 5.37052 6.61555 5.47582 6.48289C5.58111 6.35022 5.73161 6.26347 5.8969 6.24016L5.98646 6.23386H11.6973Z" fill="#999999"/>
<path d="M1.59756 3.08745C1.88865 3.08745 2.16782 3.20597 2.37365 3.41695C2.57948 3.62793 2.69512 3.91408 2.69512 4.21245C2.69512 4.51082 2.57948 4.79696 2.37365 5.00794C2.16782 5.21892 1.88865 5.33745 1.59756 5.33745C1.30647 5.33745 1.0273 5.21892 0.821468 5.00794C0.615635 4.79696 0.5 4.51082 0.5 4.21245C0.5 3.91408 0.615635 3.62793 0.821468 3.41695C1.0273 3.20597 1.30647 3.08745 1.59756 3.08745Z" fill="#999999"/>
<path d="M18.5003 13.4374C18.5003 12.1246 17.9915 10.8656 17.0859 9.93726C16.1802 9.00896 14.9519 8.48744 13.6711 8.48744C12.3903 8.48744 11.1619 9.00896 10.2563 9.93726C9.35059 10.8656 8.8418 12.1246 8.8418 13.4374C8.8418 14.7503 9.35059 16.0093 10.2563 16.9376C11.1619 17.8659 12.3903 18.3874 13.6711 18.3874C14.9519 18.3874 16.1802 17.8659 17.0859 16.9376C17.9915 16.0093 18.5003 14.7503 18.5003 13.4374ZM14.1101 13.8874L14.111 16.1401C14.111 16.2595 14.0647 16.3739 13.9824 16.4583C13.9 16.5427 13.7884 16.5901 13.6719 16.5901C13.5555 16.5901 13.4438 16.5427 13.3615 16.4583C13.2792 16.3739 13.2329 16.2595 13.2329 16.1401V13.8874H11.0334C10.917 13.8874 10.8053 13.84 10.723 13.7556C10.6406 13.6712 10.5944 13.5568 10.5944 13.4374C10.5944 13.3181 10.6406 13.2036 10.723 13.1192C10.8053 13.0349 10.917 12.9874 11.0334 12.9874H13.232V10.7374C13.232 10.6181 13.2783 10.5036 13.3606 10.4192C13.443 10.3349 13.5546 10.2874 13.6711 10.2874C13.7875 10.2874 13.8992 10.3349 13.9815 10.4192C14.0638 10.5036 14.1101 10.6181 14.1101 10.7374V12.9874H16.3026C16.419 12.9874 16.5307 13.0349 16.613 13.1192C16.6953 13.2036 16.7416 13.3181 16.7416 13.4374C16.7416 13.5568 16.6953 13.6712 16.613 13.7556C16.5307 13.84 16.419 13.8874 16.3026 13.8874H14.1101Z" fill="#999999"/>
</svg>
