<svg width="104" height="31" viewBox="0 0 104 31" fill="none" xmlns="http://www.w3.org/2000/svg">
<path d="M48.6162 8.52409C48.6162 8.70104 48.5854 8.88184 48.5238 9.06649C48.47 9.24345 48.3892 9.40886 48.2815 9.56274L40.0184 21.288H48.3853V24H35.5753V22.6498C35.5753 22.4882 35.6022 22.3305 35.6561 22.1766C35.7099 22.015 35.7869 21.8688 35.8869 21.738L44.173 9.96666H36.1639V7.25462H48.6162V8.52409ZM63.2779 21.2303C63.8396 21.2303 64.3435 21.1379 64.7897 20.9533C65.236 20.7609 65.613 20.4917 65.9207 20.1454C66.2285 19.7992 66.4631 19.3799 66.6247 18.8875C66.7863 18.3951 66.867 17.8412 66.867 17.2257V7.25462H70.3292V17.2257C70.3292 18.2413 70.1638 19.176 69.833 20.03C69.5098 20.8764 69.0444 21.6073 68.4366 22.2228C67.8288 22.8382 67.0902 23.3191 66.2208 23.6653C65.3514 24.0115 64.3704 24.1846 63.2779 24.1846C62.1854 24.1846 61.2006 24.0115 60.3235 23.6653C59.4541 23.3191 58.7155 22.8382 58.1077 22.2228C57.4999 21.6073 57.0306 20.8764 56.6998 20.03C56.3767 19.176 56.2151 18.2413 56.2151 17.2257V7.25462H59.6773V17.2257C59.6773 17.8412 59.758 18.3951 59.9196 18.8875C60.0812 19.3799 60.3158 19.7992 60.6236 20.1454C60.9313 20.4917 61.3083 20.7609 61.7546 20.9533C62.2008 21.1379 62.7086 21.2303 63.2779 21.2303ZM84.3377 15.183C84.8993 15.183 85.384 15.1138 85.7918 14.9753C86.1995 14.8291 86.5342 14.6329 86.7958 14.3867C87.0574 14.1328 87.2497 13.8366 87.3728 13.4981C87.4959 13.1596 87.5575 12.7903 87.5575 12.3902C87.5575 11.5977 87.2921 10.9822 86.7612 10.5437C86.238 10.1051 85.4379 9.88587 84.3607 9.88587H82.5604V15.183H84.3377ZM92.4507 24H89.3232C88.7385 24 88.3153 23.7769 88.0537 23.3306L84.8685 18.1951C84.7377 17.9951 84.5916 17.8489 84.43 17.7565C84.2761 17.6642 84.0453 17.6181 83.7376 17.6181H82.5604V24H79.0982V7.25462H84.3607C85.5302 7.25462 86.5304 7.37772 87.3613 7.62392C88.1922 7.86243 88.8731 8.1971 89.404 8.62795C89.9348 9.0588 90.3234 9.57428 90.5696 10.1744C90.8158 10.7668 90.9389 11.4208 90.9389 12.1363C90.9389 12.6902 90.8581 13.2173 90.6965 13.7173C90.5427 14.2097 90.3157 14.6598 90.0156 15.0676C89.7156 15.4754 89.3463 15.837 88.9077 16.1524C88.4692 16.4678 87.9691 16.7217 87.4075 16.9141C87.6306 17.0372 87.8383 17.1872 88.0307 17.3642C88.223 17.5334 88.3961 17.7373 88.55 17.9758L92.4507 24ZM103.05 24H99.5647V7.25462H103.05V24Z" fill="#393939"/>
<rect x="3.91675" width="11.7504" height="11.7504" rx="1.0991" fill="#999999"/>
<rect y="13.4287" width="11.7504" height="11.7504" rx="1.0991" fill="#FEA162"/>
<rect x="17.3457" y="5.5957" width="11.7504" height="11.7504" rx="1.0991" fill="#1A61DB"/>
<rect x="13.429" y="19.0244" width="11.7504" height="11.7504" rx="1.0991" fill="#DC1AA3"/>
</svg>
