<svg width="15" height="17" viewBox="0 0 15 17" fill="none" xmlns="http://www.w3.org/2000/svg">
<path d="M9.68086 6.1677C9.42086 6.1077 9.13419 6.0777 8.82086 6.0777C8.32086 6.0777 7.86086 6.18436 7.44086 6.3977C7.02753 6.60436 6.67086 6.8777 6.37086 7.2177C6.07086 7.5577 5.83419 7.9477 5.66086 8.3877C5.49419 8.82769 5.41086 9.27769 5.41086 9.73769C5.41086 10.2177 5.52086 10.6044 5.74086 10.8977C5.96086 11.1844 6.28753 11.3277 6.72086 11.3277C6.92753 11.3277 7.13419 11.2944 7.34086 11.2277C7.55419 11.161 7.75753 11.0444 7.95086 10.8777C8.15086 10.711 8.33419 10.4844 8.50086 10.1977C8.66753 9.91103 8.80753 9.55103 8.92086 9.1177L9.68086 6.1677ZM10.3009 8.95769C10.1675 9.46436 10.1042 9.8777 10.1109 10.1977C10.1175 10.511 10.1675 10.7577 10.2609 10.9377C10.3609 11.1177 10.4975 11.241 10.6709 11.3077C10.8442 11.3677 11.0342 11.3977 11.2409 11.3977C11.5675 11.3977 11.8775 11.3044 12.1709 11.1177C12.4642 10.931 12.7209 10.6677 12.9409 10.3277C13.1675 9.9877 13.3442 9.58103 13.4709 9.1077C13.6042 8.6277 13.6709 8.0977 13.6709 7.51769C13.6709 6.59769 13.5242 5.79103 13.2309 5.0977C12.9375 4.40436 12.5309 3.8277 12.0109 3.3677C11.4975 2.90103 10.8875 2.55436 10.1809 2.32769C9.48086 2.09436 8.72419 1.97769 7.91086 1.97769C7.01753 1.97769 6.18086 2.14769 5.40086 2.48769C4.62086 2.82769 3.94086 3.29769 3.36086 3.8977C2.78086 4.49769 2.32086 5.20769 1.98086 6.0277C1.64753 6.84769 1.48086 7.74103 1.48086 8.7077C1.48086 9.84103 1.65753 10.8377 2.01086 11.6977C2.37086 12.551 2.85753 13.2677 3.47086 13.8477C4.09086 14.4277 4.81753 14.8644 5.65086 15.1577C6.48419 15.451 7.37753 15.5977 8.33086 15.5977C9.34419 15.5977 10.2375 15.4877 11.0109 15.2677C11.7909 15.0477 12.4642 14.7677 13.0309 14.4277C13.1642 14.3477 13.2809 14.3244 13.3809 14.3577C13.4809 14.3844 13.5542 14.4577 13.6009 14.5777L13.8609 15.2377C13.1409 15.7177 12.3242 16.0944 11.4109 16.3677C10.5042 16.641 9.47753 16.7777 8.33086 16.7777C7.17086 16.7777 6.09419 16.5944 5.10086 16.2277C4.10753 15.861 3.24419 15.331 2.51086 14.6377C1.78419 13.951 1.21086 13.1077 0.790859 12.1077C0.377526 11.1077 0.170859 9.97436 0.170859 8.7077C0.170859 7.98103 0.260859 7.28103 0.440859 6.60769C0.627526 5.93436 0.887526 5.30769 1.22086 4.7277C1.55419 4.14103 1.95419 3.6077 2.42086 3.12769C2.88753 2.64103 3.40753 2.2277 3.98086 1.8877C4.55419 1.54103 5.17086 1.27436 5.83086 1.08769C6.49753 0.894361 7.19086 0.797694 7.91086 0.797694C8.52419 0.797694 9.12419 0.864361 9.71086 0.997694C10.2975 1.13103 10.8509 1.32769 11.3709 1.58769C11.8975 1.84769 12.3775 2.17103 12.8109 2.55769C13.2509 2.93769 13.6309 3.3777 13.9509 3.8777C14.2709 4.37103 14.5175 4.92436 14.6909 5.53769C14.8709 6.14436 14.9609 6.80436 14.9609 7.51769C14.9609 8.23769 14.8575 8.90436 14.6509 9.5177C14.4509 10.1244 14.1709 10.651 13.8109 11.0977C13.4575 11.5444 13.0375 11.8944 12.5509 12.1477C12.0642 12.401 11.5409 12.5277 10.9809 12.5277C10.4742 12.5277 10.0542 12.4044 9.72086 12.1577C9.39419 11.9044 9.18419 11.521 9.09086 11.0077C8.71086 11.541 8.29419 11.9244 7.84086 12.1577C7.38753 12.391 6.89753 12.5077 6.37086 12.5077C5.97753 12.5077 5.63086 12.441 5.33086 12.3077C5.03753 12.1677 4.79419 11.9777 4.60086 11.7377C4.40753 11.491 4.26086 11.201 4.16086 10.8677C4.06753 10.5344 4.02086 10.1744 4.02086 9.7877C4.02086 9.22103 4.12753 8.65103 4.34086 8.07769C4.56086 7.49769 4.88419 6.97769 5.31086 6.51769C5.73753 6.05103 6.26753 5.67103 6.90086 5.3777C7.53419 5.08436 8.26753 4.93769 9.10086 4.93769C9.54753 4.93769 9.94086 4.97436 10.2809 5.0477C10.6209 5.11436 10.9409 5.21436 11.2409 5.34769L10.3009 8.95769Z" fill="#999999"/>
</svg>
