<svg width="17" height="16" viewBox="0 0 17 16" fill="none" xmlns="http://www.w3.org/2000/svg">
<path d="M8.47266 1.25C12.1852 1.25 15.2227 4.2875 15.2227 8C15.2227 11.7125 12.1852 14.75 8.47266 14.75C4.76016 14.75 1.72266 11.7125 1.72266 8C1.72266 4.2875 4.76016 1.25 8.47266 1.25ZM8.47266 0.125C4.14141 0.125 0.597656 3.66875 0.597656 8C0.597656 12.3313 4.14141 15.875 8.47266 15.875C12.8039 15.875 16.3477 12.3313 16.3477 8C16.3477 3.66875 12.8039 0.125 8.47266 0.125Z" fill="#999999"/>
<path d="M12.9727 7.4375H9.03516V3.5H7.91016V7.4375H3.97266V8.5625H7.91016V12.5H9.03516V8.5625H12.9727V7.4375Z" fill="#999999"/>
</svg>
