<svg width="16" height="16" viewBox="0 0 16 16" fill="none" xmlns="http://www.w3.org/2000/svg">
<path d="M6.69946 1.98242C5.90381 1.98242 5.14075 2.29849 4.57814 2.8611C4.01553 3.42371 3.69946 4.18677 3.69946 4.98242C3.69946 5.77807 4.01553 6.54113 4.57814 7.10374C5.14075 7.66635 5.90381 7.98242 6.69946 7.98242C7.49511 7.98242 8.25817 7.66635 8.82078 7.10374C9.38339 6.54113 9.69946 5.77807 9.69946 4.98242C9.69946 4.18677 9.38339 3.42371 8.82078 2.8611C8.25817 2.29849 7.49511 1.98242 6.69946 1.98242ZM2.19946 4.98242C2.19946 3.78895 2.67357 2.64436 3.51748 1.80044C4.3614 0.956528 5.50599 0.482422 6.69946 0.482422C7.89294 0.482422 9.03753 0.956528 9.88144 1.80044C10.7254 2.64436 11.1995 3.78895 11.1995 4.98242C11.1995 6.1759 10.7254 7.32049 9.88144 8.1644C9.03753 9.00832 7.89294 9.48242 6.69946 9.48242C5.50599 9.48242 4.3614 9.00832 3.51748 8.1644C2.67357 7.32049 2.19946 6.1759 2.19946 4.98242ZM11.8205 1.80017C11.8901 1.73044 11.9728 1.67512 12.0639 1.63738C12.1549 1.59963 12.2525 1.58021 12.3511 1.58021C12.4496 1.58021 12.5472 1.59963 12.6383 1.63738C12.7293 1.67512 12.8121 1.73044 12.8817 1.80017C13.2997 2.21805 13.6312 2.71416 13.8574 3.26017C14.0836 3.80619 14.2 4.39141 14.2 4.98242C14.2 5.57343 14.0836 6.15866 13.8574 6.70467C13.6312 7.25069 13.2997 7.7468 12.8817 8.16467C12.812 8.23435 12.7293 8.28963 12.6383 8.32734C12.5472 8.36505 12.4496 8.38446 12.3511 8.38446C12.2525 8.38446 12.155 8.36505 12.0639 8.32734C11.9729 8.28963 11.8901 8.23435 11.8205 8.16467C11.7508 8.09499 11.6955 8.01226 11.6578 7.92122C11.6201 7.83017 11.6007 7.73259 11.6007 7.63405C11.6007 7.5355 11.6201 7.43792 11.6578 7.34688C11.6955 7.25583 11.7508 7.1731 11.8205 7.10342C12.3829 6.54084 12.6988 5.77791 12.6988 4.98242C12.6988 4.18693 12.3829 3.424 11.8205 2.86142C11.7507 2.79177 11.6954 2.70905 11.6577 2.618C11.6199 2.52695 11.6005 2.42936 11.6005 2.3308C11.6005 2.23224 11.6199 2.13464 11.6577 2.04359C11.6954 1.95254 11.7507 1.86983 11.8205 1.80017ZM12.347 11.5502C12.3953 11.3574 12.5182 11.1917 12.6886 11.0895C12.8591 10.9872 13.0631 10.9568 13.256 11.0049C14.252 11.2539 14.8827 11.8899 15.245 12.6159C15.596 13.3172 15.6995 14.1009 15.6995 14.7324C15.6995 14.9313 15.6204 15.1221 15.4798 15.2628C15.3391 15.4034 15.1484 15.4824 14.9495 15.4824C14.7506 15.4824 14.5598 15.4034 14.4191 15.2628C14.2785 15.1221 14.1995 14.9313 14.1995 14.7324C14.1995 14.2397 14.1155 13.7102 13.904 13.2864C13.7037 12.8867 13.3962 12.5859 12.8922 12.4599C12.6994 12.4116 12.5337 12.2887 12.4315 12.1182C12.3293 11.9478 12.2989 11.7438 12.347 11.5509V11.5502ZM4.07446 12.4824C3.12946 12.4824 2.19946 13.3922 2.19946 14.7324C2.19946 14.9313 2.12045 15.1221 1.97979 15.2628C1.83914 15.4034 1.64838 15.4824 1.44946 15.4824C1.25055 15.4824 1.05979 15.4034 0.919133 15.2628C0.77848 15.1221 0.699463 14.9313 0.699463 14.7324C0.699463 12.7584 2.11921 10.9824 4.07446 10.9824H9.32446C11.2797 10.9824 12.6995 12.7584 12.6995 14.7324C12.6995 14.9313 12.6204 15.1221 12.4798 15.2628C12.3391 15.4034 12.1484 15.4824 11.9495 15.4824C11.7506 15.4824 11.5598 15.4034 11.4191 15.2628C11.2785 15.1221 11.1995 14.9313 11.1995 14.7324C11.1995 13.3922 10.2695 12.4824 9.32446 12.4824H4.07446Z" fill="#999999"/>
</svg>
