<svg width="18" height="19" viewBox="0 0 18 19" fill="none" xmlns="http://www.w3.org/2000/svg">
<path d="M12.8903 0.387695C13.6192 0.387646 14.3205 0.673494 14.8503 1.1866C15.3801 1.69971 15.6983 2.40117 15.7395 3.14709L15.7439 3.3127V8.50749C15.3334 8.23775 14.8908 8.02329 14.4269 7.86939V3.3127C14.4268 2.91742 14.2818 2.53661 14.0206 2.24584C13.7594 1.95508 13.401 1.77562 13.0167 1.7431L12.8903 1.7377H2.79272C2.26589 1.7377 1.80052 2.0095 1.52394 2.4244C1.09864 2.19121 0.604435 2.12681 0.135742 2.24349C0.33558 1.72273 0.676837 1.27159 1.1191 0.943481C1.56136 0.615376 2.08609 0.424062 2.63115 0.392195L2.79272 0.387695H12.8903Z" fill="#999999"/>
<path d="M17.5001 13.4373C17.5001 12.1245 16.9913 10.8654 16.0856 9.93713C15.18 9.00882 13.9516 8.4873 12.6708 8.4873C11.39 8.4873 10.1617 9.00882 9.25601 9.93713C8.35035 10.8654 7.84155 12.1245 7.84155 13.4373C7.84155 14.7501 8.35035 16.0092 9.25601 16.9375C10.1617 17.8658 11.39 18.3873 12.6708 18.3873C13.9516 18.3873 15.18 17.8658 16.0856 16.9375C16.9913 16.0092 17.5001 14.7501 17.5001 13.4373ZM13.1098 13.8873L13.1107 16.14C13.1107 16.2594 13.0645 16.3738 12.9821 16.4582C12.8998 16.5426 12.7881 16.59 12.6717 16.59C12.5553 16.59 12.4436 16.5426 12.3613 16.4582C12.2789 16.3738 12.2327 16.2594 12.2327 16.14V13.8873H10.0332C9.91672 13.8873 9.80506 13.8399 9.72272 13.7555C9.64039 13.6711 9.59414 13.5567 9.59414 13.4373C9.59414 13.318 9.64039 13.2035 9.72272 13.1191C9.80506 13.0347 9.91672 12.9873 10.0332 12.9873H12.2318V10.7373C12.2318 10.618 12.278 10.5035 12.3604 10.4191C12.4427 10.3347 12.5544 10.2873 12.6708 10.2873C12.7873 10.2873 12.8989 10.3347 12.9813 10.4191C13.0636 10.5035 13.1098 10.618 13.1098 10.7373V12.9873H15.3023C15.4188 12.9873 15.5304 13.0347 15.6128 13.1191C15.6951 13.2035 15.7413 13.318 15.7413 13.4373C15.7413 13.5567 15.6951 13.6711 15.6128 13.7555C15.5304 13.8399 15.4188 13.8873 15.3023 13.8873H13.1098Z" fill="#999999"/>
</svg>
