<svg width="19" height="17" viewBox="0 0 19 17" fill="none" xmlns="http://www.w3.org/2000/svg">
<path d="M15.4995 4.78809V2.98809C15.4995 1.50309 14.2845 0.288086 12.7995 0.288086H5.59946C4.11446 0.288086 2.89946 1.50309 2.89946 2.98809V4.78809C1.41446 4.78809 0.199463 6.00309 0.199463 7.48809V11.9881C0.199463 13.4731 1.41446 14.6881 2.89946 14.6881V16.4881H4.69946V14.6881H13.6995V16.4881H15.4995V14.6881C16.9845 14.6881 18.1995 13.4731 18.1995 11.9881V7.48809C18.1995 6.00309 16.9845 4.78809 15.4995 4.78809ZM4.69946 2.98809C4.69946 2.49309 5.10446 2.08809 5.59946 2.08809H12.7995C13.2945 2.08809 13.6995 2.49309 13.6995 2.98809V5.49009C13.1505 5.98509 12.7995 6.69609 12.7995 7.48809V9.28809H5.59946V7.48809C5.59946 6.69609 5.24846 5.98509 4.69946 5.49009V2.98809ZM16.3995 11.9881C16.3995 12.4831 15.9945 12.8881 15.4995 12.8881H2.89946C2.40446 12.8881 1.99946 12.4831 1.99946 11.9881V7.48809C1.99946 6.99309 2.40446 6.58809 2.89946 6.58809C3.39446 6.58809 3.79946 6.99309 3.79946 7.48809V11.0881H14.5995V7.48809C14.5995 6.99309 15.0045 6.58809 15.4995 6.58809C15.9945 6.58809 16.3995 6.99309 16.3995 7.48809V11.9881Z" fill="#999999"/>
</svg>
