<svg width="13" height="16" viewBox="0 0 13 16" fill="none" xmlns="http://www.w3.org/2000/svg">
<path d="M6.91699 0.482422C4.84924 0.482422 3.16699 2.16467 3.16699 4.23242V6.48242H2.41699C1.58974 6.48242 0.916992 7.15517 0.916992 7.98242V13.9824C0.916992 14.8097 1.58974 15.4824 2.41699 15.4824H11.417C12.2442 15.4824 12.917 14.8097 12.917 13.9824V7.98242C12.917 7.15517 12.2442 6.48242 11.417 6.48242H10.667V4.23242C10.667 2.16467 8.98474 0.482422 6.91699 0.482422ZM11.417 7.98242L11.4185 13.9824H2.41699V7.98242H11.417ZM4.66699 6.48242V4.23242C4.66699 2.99192 5.67649 1.98242 6.91699 1.98242C8.15749 1.98242 9.16699 2.99192 9.16699 4.23242V6.48242H4.66699Z" fill="#999999"/>
</svg>
