<svg width="16" height="15" viewBox="0 0 16 15" fill="none" xmlns="http://www.w3.org/2000/svg">
<path fill-rule="evenodd" clip-rule="evenodd" d="M3.05991 11.0513C3.15913 11.1509 3.23516 11.2712 3.28258 11.4035C3.33 11.5359 3.34765 11.6771 3.33426 11.817C3.26708 12.4647 3.13971 13.1047 2.95381 13.7288C4.28729 13.4201 5.10173 13.0625 5.47166 12.8752C5.68149 12.7689 5.92312 12.7437 6.15035 12.8045C6.80174 12.9781 7.4731 13.0655 8.14724 13.0645C11.967 13.0645 14.8386 10.3812 14.8386 7.32903C14.8386 4.27778 11.967 1.5936 8.14724 1.5936C4.32744 1.5936 1.4559 4.27778 1.4559 7.32903C1.4559 8.7323 2.0457 10.0342 3.05991 11.0513ZM2.58865 14.7841C2.36217 14.829 2.13495 14.8701 1.90709 14.9074C1.71591 14.938 1.57061 14.7392 1.64613 14.5614C1.73101 14.3612 1.8088 14.1581 1.87937 13.9525L1.88224 13.9429C2.1193 13.2547 2.3124 12.4632 2.38313 11.7262C1.21024 10.5504 0.5 9.01142 0.5 7.32903C0.5 3.6335 3.92405 0.637695 8.14724 0.637695C12.3704 0.637695 15.7945 3.6335 15.7945 7.32903C15.7945 11.0246 12.3704 14.0204 8.14724 14.0204C7.38983 14.0214 6.63556 13.923 5.90373 13.7279C5.40666 13.9793 4.337 14.4371 2.58865 14.7841Z" fill="#999999"/>
<path fill-rule="evenodd" clip-rule="evenodd" d="M4.32373 4.93889C4.32373 4.81213 4.37409 4.69056 4.46372 4.60093C4.55335 4.51129 4.67492 4.46094 4.80168 4.46094H11.493C11.6198 4.46094 11.7413 4.51129 11.831 4.60093C11.9206 4.69056 11.971 4.81213 11.971 4.93889C11.971 5.06565 11.9206 5.18722 11.831 5.27685C11.7413 5.36649 11.6198 5.41684 11.493 5.41684H4.80168C4.67492 5.41684 4.55335 5.36649 4.46372 5.27685C4.37409 5.18722 4.32373 5.06565 4.32373 4.93889ZM4.32373 7.32865C4.32373 7.20189 4.37409 7.08032 4.46372 6.99069C4.55335 6.90106 4.67492 6.8507 4.80168 6.8507H11.493C11.6198 6.8507 11.7413 6.90106 11.831 6.99069C11.9206 7.08032 11.971 7.20189 11.971 7.32865C11.971 7.45541 11.9206 7.57698 11.831 7.66662C11.7413 7.75625 11.6198 7.8066 11.493 7.8066H4.80168C4.67492 7.8066 4.55335 7.75625 4.46372 7.66662C4.37409 7.57698 4.32373 7.45541 4.32373 7.32865ZM4.32373 9.71841C4.32373 9.59165 4.37409 9.47008 4.46372 9.38045C4.55335 9.29082 4.67492 9.24046 4.80168 9.24046H8.6253C8.75206 9.24046 8.87363 9.29082 8.96326 9.38045C9.0529 9.47008 9.10325 9.59165 9.10325 9.71841C9.10325 9.84517 9.0529 9.96674 8.96326 10.0564C8.87363 10.146 8.75206 10.1964 8.6253 10.1964H4.80168C4.67492 10.1964 4.55335 10.146 4.46372 10.0564C4.37409 9.96674 4.32373 9.84517 4.32373 9.71841Z" fill="#999999"/>
</svg>
